<?xml version="1.0" standalone="no"?>
<!DOCTYPE svg PUBLIC "-//W3C//DTD SVG 20010904//EN"
 "http://www.w3.org/TR/2001/REC-SVG-20010904/DTD/svg10.dtd">
<svg version="1.0" xmlns="http://www.w3.org/2000/svg"
 width="746.000000pt" height="282.000000pt" viewBox="0 0 746.000000 282.000000"
 preserveAspectRatio="xMidYMid meet">

<g transform="translate(0.000000,282.000000) scale(0.100000,-0.100000)"
fill="#000000" stroke="none">
<path d="M1605 1708 c-3 -7 -4 -112 -3 -233 l3 -220 30 0 30 0 0 230 0 230
-28 3 c-16 2 -29 -2 -32 -10z"/>
<path d="M2047 1714 c-4 -4 -7 -110 -7 -236 l0 -229 33 3 32 3 0 230 0 230
-25 3 c-14 2 -29 0 -33 -4z"/>
<path d="M2222 1712 c-9 -7 -12 -60 -10 -233 l3 -224 30 0 30 0 5 120 c6 135
0 137 68 -25 37 -88 42 -95 68 -95 l29 0 0 230 0 230 -30 0 -30 0 -5 -120 c-6
-133 -2 -133 -60 5 -48 116 -63 133 -98 112z"/>
<path d="M2634 1708 c-16 -4 -41 -19 -55 -34 -23 -25 -24 -29 -24 -191 l0
-165 39 -35 c35 -33 42 -35 88 -31 36 4 57 12 76 31 24 25 27 35 30 126 4 100
4 100 -21 106 -13 4 -38 5 -53 3 -25 -3 -29 -8 -32 -36 -3 -27 1 -35 17 -39
30 -8 31 -97 2 -113 -28 -14 -38 -13 -61 10 -18 18 -20 33 -20 143 1 123 8
153 40 157 32 5 41 -1 51 -30 9 -24 17 -30 40 -30 26 0 29 3 29 34 0 67 -73
114 -146 94z"/>
<path d="M2898 1714 c-5 -4 -8 -110 -8 -236 l0 -229 88 3 87 3 0 30 c0 29 -2
30 -52 33 l-53 3 0 58 c0 63 7 71 56 71 22 0 25 4 22 33 -3 29 -6 32 -41 35
l-38 3 3 62 3 62 53 3 c50 3 52 4 52 33 0 26 -3 29 -32 29 -18 0 -55 3 -83 6
-27 3 -53 3 -57 -2z"/>
<path d="M3236 1709 c-41 -12 -65 -37 -72 -76 -10 -55 11 -105 67 -159 58 -57
83 -97 74 -124 -11 -35 -59 -35 -70 0 -11 33 -75 37 -75 5 0 -49 58 -105 108
-105 36 0 80 27 97 60 32 62 14 112 -76 207 -58 60 -65 75 -53 107 8 20 60 21
68 1 6 -17 52 -20 61 -4 4 5 4 21 1 34 -11 43 -76 70 -130 54z"/>
<path d="M3616 1706 c-94 -35 -148 -106 -154 -200 -5 -76 9 -126 51 -172 90
-104 254 -107 349 -7 56 59 77 169 45 244 -47 113 -182 175 -291 135z m165
-58 c125 -70 131 -243 11 -319 -64 -40 -96 -38 -141 9 -39 40 -61 97 -61 153
0 46 41 131 76 157 37 27 67 27 115 0z"/>
<path d="M4017 1714 c-4 -4 -7 -107 -7 -230 0 -196 2 -223 16 -228 9 -4 25 -4
35 -1 16 5 19 19 21 98 l3 92 38 3 c36 3 38 5 35 35 -3 29 -6 32 -40 35 l-38
3 0 60 c0 64 -3 62 75 63 28 1 30 4 30 36 l0 35 -80 3 c-45 1 -84 0 -88 -4z"/>
<path d="M4260 1705 c-20 -24 -8 -50 25 -53 81 -7 75 10 75 -202 l0 -190 24
-6 c14 -3 30 -3 35 1 7 4 11 72 11 190 0 206 0 205 74 205 34 0 36 2 36 35 l0
35 -134 0 c-105 0 -136 -3 -146 -15z"/>
<path d="M4621 1711 c-12 -8 -9 -42 23 -227 20 -120 42 -222 49 -226 39 -25
57 0 79 116 12 58 25 106 30 106 4 0 8 -4 8 -8 0 -33 44 -208 53 -214 43 -28
54 -3 91 210 41 231 42 238 20 246 -40 15 -50 -1 -70 -112 -19 -104 -20 -106
-31 -72 -6 19 -17 68 -23 108 -11 64 -15 73 -37 78 -37 10 -50 -11 -67 -104
-24 -125 -30 -127 -50 -10 -20 115 -34 135 -75 109z"/>
<path d="M5135 1709 c-59 -17 -65 -37 -65 -217 0 -187 7 -213 65 -232 50 -16
110 -4 135 27 18 23 20 41 20 197 0 193 -4 208 -68 226 -43 11 -47 11 -87 -1z
m85 -88 c11 -21 14 -239 4 -265 -10 -26 -41 -38 -64 -26 -19 10 -20 21 -20
148 0 94 4 142 12 150 18 18 56 14 68 -7z"/>
<path d="M5398 1710 c-16 -10 -18 -32 -18 -230 l0 -220 24 -6 c40 -10 46 2 46
84 0 133 25 137 77 12 19 -47 38 -89 43 -94 12 -12 60 2 60 18 0 7 -14 47 -30
89 l-31 75 25 36 c33 49 40 87 26 145 -17 73 -43 91 -131 97 -45 3 -81 0 -91
-6z m133 -70 c15 -8 19 -21 19 -59 0 -57 -15 -74 -62 -69 -32 3 -33 4 -36 57
-2 29 -1 60 2 67 6 16 49 18 77 4z"/>
<path d="M5743 1713 c-10 -3 -13 -59 -13 -229 l0 -224 25 -6 c40 -10 54 10 57
84 l3 66 40 -75 c42 -78 58 -89 90 -65 23 17 28 3 -56 153 l-34 63 55 104 c56
108 57 117 13 130 -18 6 -27 -3 -65 -70 l-43 -76 -3 63 c-4 81 -21 102 -69 82z"/>
<path d="M6103 1709 c-58 -17 -81 -103 -47 -174 8 -18 35 -52 60 -75 24 -22
51 -54 59 -70 14 -28 14 -31 -5 -50 -27 -27 -35 -25 -60 11 -28 38 -63 37 -68
-3 -2 -18 6 -37 27 -60 25 -28 36 -33 75 -33 36 0 51 6 75 29 26 25 31 37 31
75 0 56 -24 99 -91 163 -55 53 -66 98 -30 118 25 13 24 13 51 -10 13 -11 32
-20 42 -20 46 0 26 73 -27 95 -39 17 -47 17 -92 4z"/>
<path d="M1287 1703 c-9 -8 -9 -416 -1 -437 4 -9 18 -16 34 -16 32 0 40 18 40
95 0 59 9 53 54 -32 33 -62 50 -72 81 -49 21 15 17 25 -74 189 -16 27 -14 31
39 133 46 88 53 106 40 114 -37 23 -55 11 -95 -62 l-40 -73 -3 50 c-4 83 -9
95 -41 95 -15 0 -31 -3 -34 -7z"/>
<path d="M1774 1697 c-2 -7 -3 -109 -2 -227 l3 -215 88 -3 88 -3 -3 33 c-3 32
-5 33 -53 38 l-50 5 -3 193 -2 192 -31 0 c-16 0 -32 -6 -35 -13z"/>
<path d="M2936 1093 c-10 -10 -7 -143 3 -143 6 0 11 15 14 33 l4 32 13 -32
c16 -37 36 -45 25 -10 -8 25 -7 31 1 73 3 19 1 34 -5 38 -16 11 -48 15 -55 9z
m44 -43 c0 -11 -7 -20 -15 -20 -8 0 -15 9 -15 20 0 11 7 20 15 20 8 0 15 -9
15 -20z"/>
<path d="M3058 1093 c-15 -4 -18 -16 -18 -74 0 -67 1 -69 25 -69 14 0 25 5 25
10 0 6 -7 10 -15 10 -18 0 -20 36 -2 44 10 5 10 7 0 12 -19 9 -17 55 2 48 8
-4 15 -1 15 4 0 14 -11 19 -32 15z"/>
<path d="M3245 1090 c-25 -6 -27 -8 -12 -14 13 -6 17 -20 17 -61 0 -30 5 -57
10 -60 6 -4 10 16 10 53 0 52 3 60 21 65 12 3 18 10 14 16 -7 12 -15 12 -60 1z"/>
<path d="M3334 1085 c-3 -7 -4 -39 -2 -71 3 -56 4 -59 31 -62 15 -2 27 1 27 7
0 6 -9 11 -20 11 -13 0 -20 7 -20 20 0 11 7 20 15 20 8 0 15 5 15 10 0 6 -7
10 -16 10 -10 0 -14 7 -12 23 2 12 8 22 15 22 24 0 23 13 -2 18 -16 3 -28 0
-31 -8z"/>
<path d="M3597 1093 c-4 -3 -7 -22 -8 -42 l0 -36 -16 38 c-8 20 -19 37 -24 37
-5 0 -9 -31 -9 -70 0 -72 19 -102 21 -32 l1 37 15 -37 c9 -21 20 -38 24 -38 5
0 9 34 9 75 0 75 -1 81 -13 68z"/>
<path d="M3974 1092 c-13 -8 -34 -131 -23 -137 4 -3 9 2 13 10 7 20 36 19 36
0 0 -8 5 -15 11 -15 7 0 9 9 6 23 -3 12 -9 43 -12 70 -8 50 -14 60 -31 49z
m12 -90 c-12 -11 -18 7 -10 30 l8 23 4 -23 c2 -13 1 -26 -2 -30z"/>
<path d="M4075 1089 c-38 -6 -41 -10 -12 -13 7 -1 14 -25 18 -66 l6 -65 1 63
c2 46 6 62 16 62 17 0 30 17 19 22 -5 2 -26 1 -48 -3z"/>
<path d="M4418 1094 c-15 -14 -9 -112 8 -128 35 -35 64 -4 64 70 0 72 -18 69
-22 -3 -2 -44 -7 -58 -18 -58 -11 0 -16 16 -20 63 -3 35 -8 60 -12 56z"/>
<path d="M2834 1076 c-3 -7 -4 -35 -2 -61 4 -58 27 -80 55 -53 9 10 14 21 10
25 -4 3 -13 1 -19 -5 -21 -21 -28 -13 -28 37 0 48 12 72 25 51 10 -16 25 -12
19 5 -8 19 -53 20 -60 1z"/>
<path d="M3132 1028 c-6 -37 -6 -67 -1 -72 6 -6 9 -3 9 7 0 10 8 17 20 17 11
0 20 -7 20 -16 0 -8 4 -13 8 -10 5 3 4 34 -2 70 -7 52 -13 66 -26 66 -13 0
-20 -14 -28 -62z m38 -8 c0 -11 -4 -20 -10 -20 -5 0 -10 9 -10 20 0 11 5 20
10 20 6 0 10 -9 10 -20z"/>
<path d="M3493 1020 c0 -41 2 -58 4 -37 2 20 2 54 0 75 -2 20 -4 3 -4 -38z"/>
<path d="M3652 1018 c1 -41 3 -56 5 -35 5 46 15 47 32 2 18 -51 31 -34 31 41
0 67 -19 92 -21 27 l-1 -38 -15 38 c-9 20 -20 37 -24 37 -5 0 -8 -33 -7 -72z"/>
<path d="M3754 1076 c-3 -7 -4 -35 -2 -61 6 -89 68 -83 68 6 0 21 -3 44 -6 53
-8 20 -53 21 -60 2z m44 -56 c-4 -63 -28 -65 -28 -2 0 27 3 52 7 56 14 14 24
-13 21 -54z"/>
<path d="M3854 1023 c15 -91 36 -92 53 -3 6 36 9 67 7 70 -9 8 -24 -25 -24
-52 0 -16 -4 -28 -10 -28 -5 0 -10 11 -10 24 0 29 -9 56 -19 56 -4 0 -3 -30 3
-67z"/>
<path d="M4160 1020 c0 -68 1 -70 25 -70 30 0 33 16 5 23 -23 6 -27 37 -5 37
20 0 19 10 -2 25 -17 13 -11 51 6 40 5 -3 12 -1 16 5 4 6 -5 10 -19 10 -25 0
-26 -2 -26 -70z"/>
<path d="M4310 1020 c0 -68 1 -70 25 -70 38 0 45 23 36 128 -1 6 -14 12 -31
12 l-30 0 0 -70z m48 33 c-5 -25 -28 -28 -28 -4 0 12 6 21 16 21 9 0 14 -7 12
-17z m-3 -63 c0 -7 -6 -15 -12 -17 -8 -3 -13 4 -13 17 0 13 5 20 13 18 6 -3
12 -11 12 -18z"/>
<path d="M4520 1026 c0 -36 5 -68 10 -71 6 -4 10 20 10 64 0 41 -4 71 -10 71
-6 0 -10 -28 -10 -64z"/>
<path d="M4580 1020 c0 -68 1 -70 25 -70 14 0 25 5 25 10 0 6 -7 10 -15 10
-12 0 -15 13 -15 60 0 33 -4 60 -10 60 -6 0 -10 -30 -10 -70z"/>
<path d="M4660 1021 c0 -63 2 -71 19 -71 31 0 42 25 39 82 -3 50 -5 53 -30 56
l-28 3 0 -70z m40 5 c0 -25 -4 -48 -10 -51 -6 -4 -10 13 -10 44 0 28 5 51 10
51 6 0 10 -20 10 -44z"/>
</g>
</svg>
